External Loads File
version=1
nRows=86
nColumns=13
Range=5.000000e-03-10 seconds
endheader
time 	forceRightX 	forceRightY 	forceRightZ 	pointRightX 	pointRightY 	pointRightZ 	forceLeftX 	forceLeftY 	forceLeftZ 	pointLeftX 	pointLeftY 	pointLeftZ 		
0.005000 35.011269 141.779458 -0.000000 0.401668 0.384002 -0.107963 33.489042 162.202157 -0.000000 0.095688 0.252496 -0.344325
0.010000 35.130394 141.855214 -0.000000 0.401666 0.384018 -0.107973 35.659345 163.300103 -0.000000 0.095701 0.252494 -0.344319
0.015000 35.250005 141.918757 -0.000000 0.401673 0.384016 -0.107955 37.551466 164.256371 -0.000000 0.095699 0.252500 -0.344332
0.020000 35.256849 141.989225 -0.000000 0.401682 0.383875 -0.107965 38.864748 164.997063 -0.000000 0.095710 0.252211 -0.344322
0.025000 35.173065 142.039544 -0.000000 0.401724 0.384187 -0.107938 39.609929 165.485770 -0.000000 0.095678 0.252284 -0.344378
0.030000 35.085000 142.030026 -0.000000 0.401741 0.384236 -0.107927 40.001483 165.741148 -0.000000 0.095678 0.252310 -0.344425
0.035000 34.930473 141.980194 -0.000000 0.401748 0.384266 -0.107920 40.124167 165.867485 -0.000000 0.095681 0.252305 -0.344423
0.040000 34.754538 141.907355 -0.000000 0.401745 0.384274 -0.107934 40.171835 165.942611 -0.000000 0.095688 0.252308 -0.344435
0.045000 34.565215 141.847445 -0.000000 0.401742 0.384285 -0.107926 40.266140 166.032364 -0.000000 0.095683 0.252297 -0.344438
0.050000 34.379196 141.827137 -0.000000 0.401740 0.384314 -0.107922 40.503047 166.168699 -0.000000 0.095675 0.252314 -0.344453
0.055000 34.173402 141.866144 -0.000000 0.401735 0.384329 -0.107910 40.884053 166.361446 -0.000000 0.095679 0.252289 -0.344457
0.060000 33.953505 141.962070 -0.000000 0.401732 0.384318 -0.107914 41.396394 166.584665 -0.000000 0.095684 0.252269 -0.344447
0.065000 33.707698 142.110421 -0.000000 0.401725 0.384318 -0.107922 41.971424 166.807481 -0.000000 0.095670 0.252316 -0.344447
0.070000 33.383718 142.314848 -0.000000 0.401720 0.384324 -0.107902 42.463889 167.018892 -0.000000 0.095667 0.252319 -0.344470
0.075000 33.032873 142.552866 -0.000000 0.401720 0.384322 -0.107910 42.825251 167.192648 -0.000000 0.095668 0.252323 -0.344464
0.080000 32.688175 142.806312 -0.000000 0.401642 0.384329 -0.107967 43.000109 167.328265 -0.000000 0.095662 0.252321 -0.344452
0.085000 32.444020 143.042736 -0.000000 0.401640 0.384324 -0.107971 43.084196 167.433094 -0.000000 0.095671 0.252332 -0.344473
0.090000 32.311576 143.242391 -0.000000 0.401644 0.384332 -0.107983 43.169186 167.557662 -0.000000 0.095646 0.252330 -0.344462
0.095000 32.303271 143.380399 -0.000000 0.401653 0.384328 -0.107982 43.379778 167.741999 -0.000000 0.095648 0.252341 -0.344463
0.100000 32.381566 143.451903 -0.000000 0.401659 0.384325 -0.107981 43.729297 167.998382 -0.000000 0.095654 0.252333 -0.344467
0.105000 32.516931 143.465620 -0.000000 0.401659 0.384325 -0.107986 44.141171 168.281841 -0.000000 0.095670 0.252318 -0.344474
0.110000 32.691232 143.436531 -0.000000 0.401674 0.384327 -0.107998 44.477822 168.510308 -0.000000 0.095671 0.252315 -0.344493
0.115000 32.869883 143.377292 -0.000000 0.401764 0.384327 -0.107924 44.590730 168.610300 -0.000000 0.095678 0.252308 -0.344493
0.120000 32.979664 143.292174 -0.000000 0.401766 0.384349 -0.107927 44.374940 168.558870 -0.000000 0.095679 0.252307 -0.344473
0.125000 33.031855 143.159711 -0.000000 0.401775 0.384328 -0.107920 43.926262 168.366382 -0.000000 0.095686 0.252298 -0.344485
0.130000 33.006504 142.980213 -0.000000 0.401780 0.384355 -0.107905 43.340956 168.098563 -0.000000 0.095694 0.252291 -0.344493
0.135000 32.976765 142.751723 -0.000000 0.401791 0.384331 -0.107910 42.791675 167.801736 -0.000000 0.095693 0.252264 -0.344484
0.140000 32.979689 142.494334 -0.000000 0.401799 0.384326 -0.107917 42.357345 167.521651 -0.000000 0.095713 0.252293 -0.344486
0.145000 33.017695 142.245086 -0.000000 0.401807 0.384350 -0.107908 42.048704 167.302077 -0.000000 0.095717 0.252292 -0.344480
0.150000 33.132583 142.029613 -0.000000 0.401804 0.384352 -0.107921 41.929265 167.165559 -0.000000 0.095709 0.252289 -0.344493
0.155000 33.300133 141.875120 -0.000000 0.401812 0.384353 -0.107913 42.004844 167.140937 -0.000000 0.095710 0.252273 -0.344488
0.160000 33.493815 141.797121 -0.000000 0.401802 0.384355 -0.107913 42.270793 167.232952 -0.000000 0.095717 0.252279 -0.344484
0.165000 33.671393 141.808013 -0.000000 0.401799 0.384353 -0.107908 42.658787 167.416787 -0.000000 0.095716 0.252288 -0.344486
0.170000 33.780116 141.912541 -0.000000 0.401786 0.384358 -0.107926 43.039306 167.637796 -0.000000 0.095711 0.252303 -0.344489
0.175000 33.770212 142.105041 -0.000000 0.401775 0.384358 -0.107919 43.249446 167.822771 -0.000000 0.095710 0.252289 -0.344507
0.180000 33.647369 142.369885 -0.000000 0.401770 0.384362 -0.107921 43.176990 167.898012 -0.000000 0.095709 0.252287 -0.344500
0.185000 33.463907 142.690813 -0.000000 0.401762 0.384353 -0.107919 42.810204 167.832357 -0.000000 0.095704 0.252312 -0.344495
0.190000 33.257840 143.056729 -0.000000 0.401748 0.384354 -0.107933 42.227305 167.672861 -0.000000 0.095689 0.252309 -0.344490
0.195000 33.114883 143.434287 -0.000000 0.401744 0.384351 -0.107927 41.671443 167.505719 -0.000000 0.095683 0.252322 -0.344503
0.200000 33.057779 143.788917 -0.000000 0.401747 0.384355 -0.107922 41.358554 167.441776 -0.000000 0.095680 0.252337 -0.344499
0.205000 33.093678 144.080336 -0.000000 0.401746 0.384341 -0.107914 41.441769 167.548720 -0.000000 0.095682 0.252369 -0.344500
0.210000 33.168967 144.286569 -0.000000 0.401744 0.384328 -0.107918 41.881142 167.829788 -0.000000 0.095660 0.252373 -0.344486
0.215000 33.244387 144.396743 -0.000000 0.401756 0.384329 -0.107927 42.505689 168.208105 -0.000000 0.095658 0.252366 -0.344513
0.220000 33.316479 144.403761 -0.000000 0.401766 0.384320 -0.107917 43.099877 168.562269 -0.000000 0.095653 0.252393 -0.344496
0.225000 33.321896 144.317849 -0.000000 0.401771 0.384336 -0.107906 43.415893 168.807331 -0.000000 0.095642 0.252396 -0.344478
0.230000 33.268143 144.136308 -0.000000 0.401780 0.384309 -0.107915 43.414937 168.892541 -0.000000 0.095648 0.252390 -0.344502
0.235000 33.114946 143.881943 -0.000000 0.401785 0.384315 -0.107911 43.120447 168.844475 -0.000000 0.095655 0.252362 -0.344495
0.240000 32.945207 143.574290 -0.000000 0.401803 0.384302 -0.107913 42.735974 168.696704 -0.000000 0.095658 0.252374 -0.344490
0.245000 32.783051 143.265158 -0.000000 0.401806 0.384309 -0.107902 42.356358 168.511260 -0.000000 0.095662 0.252380 -0.344485
0.250000 32.684032 142.990314 -0.000000 0.401816 0.384319 -0.107917 42.074877 168.325060 -0.000000 0.095656 0.252360 -0.344491
0.255000 32.665763 142.764294 -0.000000 0.401810 0.384319 -0.107925 41.937891 168.162350 -0.000000 0.095668 0.252338 -0.344493
0.260000 32.722764 142.584859 -0.000000 0.401829 0.384331 -0.107922 41.955141 168.032064 -0.000000 0.095679 0.252348 -0.344490
0.265000 32.804992 142.455064 -0.000000 0.401831 0.384320 -0.107923 42.043056 167.934648 -0.000000 0.095698 0.252312 -0.344509
0.270000 32.911045 142.368984 -0.000000 0.401821 0.384339 -0.107918 42.140375 167.839939 -0.000000 0.095704 0.252316 -0.344511
0.275000 33.040273 142.323464 -0.000000 0.401820 0.384320 -0.107913 42.204829 167.723165 -0.000000 0.095697 0.252320 -0.344507
0.280000 33.136545 142.329406 -0.000000 0.401813 0.384341 -0.107909 42.198544 167.608372 -0.000000 0.095705 0.252308 -0.344516
0.285000 33.233693 142.378036 -0.000000 0.401807 0.384323 -0.107901 42.255432 167.530598 -0.000000 0.095722 0.252301 -0.344512
0.290000 33.311198 142.476658 -0.000000 0.401808 0.384322 -0.107911 42.449998 167.549919 -0.000000 0.095713 0.252302 -0.344512
0.295000 33.352021 142.630808 -0.000000 0.401799 0.384320 -0.107911 42.788699 167.688555 -0.000000 0.095705 0.252292 -0.344505
0.300000 33.362827 142.833173 -0.000000 0.401787 0.384315 -0.107901 43.189024 167.903954 -0.000000 0.095702 0.252312 -0.344496
0.305000 33.328217 143.080801 -0.000000 0.401787 0.384303 -0.107905 43.464482 168.131405 -0.000000 0.095702 0.252310 -0.344487
0.310000 33.277238 143.372332 -0.000000 0.401789 0.384308 -0.107919 43.518195 168.317114 -0.000000 0.095684 0.252322 -0.344511
0.315000 33.248489 143.709599 -0.000000 0.401784 0.384299 -0.107903 43.388018 168.454007 -0.000000 0.095678 0.252355 -0.344528
0.320000 33.234701 144.084780 -0.000000 0.401799 0.384292 -0.107924 43.164883 168.578578 -0.000000 0.095667 0.252363 -0.344514
0.325000 33.234416 144.462148 -0.000000 0.401815 0.384275 -0.107906 42.974502 168.723328 -0.000000 0.095658 0.252384 -0.344510
0.330000 33.222882 144.810217 -0.000000 0.401821 0.384268 -0.107913 42.871206 168.912142 -0.000000 0.095652 0.252402 -0.344517
0.335000 33.224720 145.102702 -0.000000 0.401843 0.384276 -0.107913 42.891997 169.139175 -0.000000 0.095637 0.252433 -0.344493
0.340000 33.258142 145.319894 -0.000000 0.401849 0.384250 -0.107909 43.001641 169.382740 -0.000000 0.095642 0.252434 -0.344513
0.345000 33.328620 145.436651 -0.000000 0.401858 0.384248 -0.107906 43.119645 169.600037 -0.000000 0.095644 0.252427 -0.344507
0.350000 33.442019 145.423702 -0.000000 0.401867 0.384256 -0.107912 43.183558 169.731509 -0.000000 0.095644 0.252444 -0.344509
0.355000 33.557188 145.267956 -0.000000 0.401879 0.384242 -0.107912 43.146874 169.746719 -0.000000 0.095638 0.252438 -0.344495
0.360000 33.607689 144.973798 -0.000000 0.401886 0.384246 -0.107911 43.028391 169.666417 -0.000000 0.095652 0.252434 -0.344507
0.365000 33.551441 144.559086 -0.000000 0.401885 0.384249 -0.107902 42.922564 169.545486 -0.000000 0.095649 0.252408 -0.344505
0.370000 33.388866 144.058212 -0.000000 0.401887 0.384249 -0.107913 42.922480 169.438307 -0.000000 0.095673 0.252402 -0.344515
0.375000 33.141132 143.527889 -0.000000 0.401883 0.384265 -0.107920 43.024046 169.369362 -0.000000 0.095667 0.252403 -0.344518
0.380000 32.846581 143.035876 -0.000000 0.401877 0.384258 -0.107925 43.126066 169.316662 -0.000000 0.095677 0.252380 -0.344515
0.385000 32.557634 142.638922 -0.000000 0.401877 0.384273 -0.107912 43.099586 169.230258 -0.000000 0.095696 0.252390 -0.344509
0.390000 32.292539 142.375613 -0.000000 0.401856 0.384266 -0.107911 42.830042 169.082609 -0.000000 0.095705 0.252336 -0.344516
0.395000 32.126736 142.243953 -0.000000 0.401851 0.384271 -0.107915 42.381054 168.860990 -0.000000 0.095705 0.252355 -0.344519
0.400000 32.018278 142.251245 -0.000000 0.401843 0.384281 -0.107911 41.766922 168.613303 -0.000000 0.095710 0.252315 -0.344512
0.405000 32.025044 142.374631 -0.000000 0.401837 0.384273 -0.107910 41.159475 168.361805 -0.000000 0.095716 0.252331 -0.344531
0.410000 32.106103 142.606545 -0.000000 0.401829 0.384261 -0.107906 40.620971 168.143648 -0.000000 0.095709 0.252337 -0.344511
0.415000 32.244054 142.921250 -0.000000 0.401825 0.384267 -0.107924 40.232671 167.968850 -0.000000 0.095709 0.252372 -0.344508
0.420000 32.387796 143.287284 -0.000000 0.401835 0.384250 -0.107902 40.009837 167.840659 -0.000000 0.095710 0.252334 -0.344512
0.425000 32.559357 143.652133 -0.000000 0.401838 0.384236 -0.107911 40.017557 167.735755 -0.000000 0.095711 0.252395 -0.344521
0.430000 32.671494 143.996978 -0.000000 0.401844 0.384217 -0.107909 40.148970 167.667574 -0.000000 0.095705 0.252389 -0.344512
